# File exported by Houdini 15.0.244.16 (www.sidefx.com)
# 273 points
# 273 vertices
# 50 primitives
# Bounds: [-25.6221085, -2.67540741, -15.6638174] to [25.5452232, 2.78323507, 15.5578327]
g 
v 25.0025482 0.0101961428 15.0050983
v 22.5101929 -1.76381564 2.24572754
v 24.966507 -0.133972406 3.1884284
v 23.8410454 0.895641625 15.4478207
v 19.7846222 1.76151741 9.83078098
v 14.8718243 -2.65996623 -8.13446808
v 15.1065264 2.29922199 -1.88539529
v 9.93784332 -0.135324046 -4.90696812
v 8.93394947 -0.0822859704 -7.36961412
v 12.2050533 -0.297189265 -9.94371033
v 15.8469038 -1.21325374 6.94905472
v 19.7651329 1.75780535 9.83731556
v 23.8181801 0.902132511 15.451066
v 10.3668165 -0.534035325 14.7329826
v 10.2774858 -0.253682494 14.065856
v 10.5989828 0.167996496 -14.9160013
v 17.906992 -0.414259553 -15.2071295
v 12.878891 1.38747501 -10.2072487
v 18.1852875 2.41826892 -11.4358978
v -4.54231453 0.152238548 15.0761194
v -10.7931709 -2.09275365 11.0616493
v -10.5200644 0.388035148 15.1940174
v -6.49122715 0.227719352 9.52587318
v -4.92161798 -0.280589372 9.41556644
v 12.2226686 -0.273613423 -9.94831181
v 12.8749857 1.35838711 -10.2017956
v 18.1926823 2.43013 -11.4103374
v 19.6622829 -1.76789391 -9.36521435
v 14.8814697 -2.67540741 -8.15693951
v 7.85660982 -0.101287968 -0.53746134
v 6.33216763 -1.0695641 -1.18678617
v 9.92069721 -0.129602879 -4.89669085
v 4.28008127 1.15398431 -3.98297405
v 4.57640553 0.224978685 -5.76140022
v 8.29026699 -0.252182394 -7.59740686
v 8.91487503 -0.0804024786 -7.36362839
v -20.5839119 -1.32167506 6.51849699
v -20.4236164 -0.358035892 5.90898895
v -15.4509649 -0.605471611 8.84913826
v -16.3542519 0.176220268 10.0844193
v -17.5110073 -0.564331532 3.69176269
v -15.0941849 0.0809989646 5.42233276
v 4.16253805 2.77290082 2.90117598
v 2.83002758 0.705332041 5.9820857
v 2.87426662 0.52864635 6.09280491
v 6.32763481 -1.07456994 -1.16954613
v 7.85688591 -0.104537912 -0.518780291
v 11.3657198 0.914562702 3.43961954
v 11.902276 2.08699179 5.10303307
v 8.3417654 -1.4934504 5.1289711
v -14.9829483 -0.00568865985 14.9971561
v -12.2575378 -0.0672991797 9.39860153
v -16.6442356 0.96829778 12.4772654
v -15.4366512 -0.599298656 8.86763382
v -16.3424721 0.187318638 10.1082716
v -10.8103914 -2.08241391 11.064003
v -10.5372534 0.399855971 15.1999283
v -1.65363955 1.07676208 3.78019238
v -7.07410669 -0.0623787567 0.736408889
v -4.35877371 1.41305041 -0.726218343
v -1.6867218 0.697490692 0.200940683
v -4.23057842 0.259417683 4.46413517
v -6.71563816 0.11926847 3.23242426
v -4.34785271 1.42875659 -0.737149656
v -5.17440653 0.321656615 -4.53052473
v -1.41410756 -0.275968701 -5.63150358
v -1.67899859 0.69108665 0.180004328
v 0.886718631 0.361463904 -2.92994404
v 0.261410832 -0.536041677 -1.85364687
v -24.9486294 0.205484316 5.42087793
v -25.080492 -0.321964592 12.5080585
v -22.3225517 0.544627786 4.69777584
v -20.439785 -0.342566401 5.91696692
v -20.6010189 -1.310467 6.5260601
v 4.26839018 1.16659009 -3.96288037
v 4.15168381 2.76064062 2.87613297
v 6.31006718 -1.07961476 -1.1851325
v 0.281988174 -0.53290391 -1.84870553
v 0.908821404 0.371845812 -2.92029309
v -10.7745419 0.601106465 -0.932098866
v -10.146719 0.360688299 -5.00723696
v -4.36819124 1.42630053 -0.735071778
v -7.08534336 -0.0582400896 0.722569346
v -6.449265 -0.871836364 -5.88913441
v -5.19725513 0.313042521 -4.53723907
v 10.5748768 0.160379559 -14.9198103
v 8.29481506 -0.257873923 -7.61937189
v 8.91687012 -0.0932761207 -7.38937664
v 5.83602095 1.7077136 -12.1526117
v 5.8816843 -1.32763517 -15.6638174
v 12.8577375 1.36556113 -10.2046604
v 12.2028074 -0.273176312 -9.95048428
v 1.44965005 1.11566591 15.5578327
v 2.43297267 0.581937253 11.9416342
v 10.3521309 -0.511230886 14.7443848
v 8.42245483 0.335269064 12.4432564
v 10.2622843 -0.234619111 14.0775099
v -0.0566279069 -0.276752502 -10.3977184
v 0.729583681 -0.978339493 -10.7046232
v 4.56016779 0.236790672 -5.76137638
v 4.2649107 1.16942787 -3.98153114
v 0.903987825 0.376241744 -2.93737054
v -1.40251505 -0.288509965 -5.65130663
v 10.2684803 -0.244252145 14.0531864
v 8.35648346 -1.48554766 5.1484437
v 8.43168831 0.313316762 12.4186954
v 11.9184284 2.10367727 5.12741661
v 14.7947807 -0.293191642 5.7086215
v 15.8262577 -1.23363423 6.92626238
v -6.45940304 -0.893483222 -5.91968966
v -10.147253 0.376035422 -5.0193181
v -11.9890308 0.458105862 -9.78144073
v -12.9166489 1.01184225 -7.90124416
v -7.69242048 0.135651425 -11.649044
v -5.01977396 0.0178206116 -10.277566
v -16.906765 -0.264829457 -8.12930489
v -10.7966499 0.593947351 -0.93557024
v -12.5321169 0.181908071 0.176024333
v -12.9329386 1.01313901 -7.88912344
v -10.1618738 0.376863241 -5.00548077
v -18.3728218 0.842870831 -1.31586504
v -17.5209084 0.10593944 -0.66817683
v -12.2593565 -0.0746993124 9.37482834
v -15.4314795 -0.608416319 8.84364796
v -15.0774422 0.0681269988 5.4171896
v -12.3804855 -1.41971493 3.3250618
v -9.95826149 -0.103104018 5.45022821
v -9.95237732 -0.0985922515 5.49796343
v 9.92984962 -0.156744406 -4.89721251
v 15.0959578 2.29775143 -1.86865759
v 7.87796974 -0.0873875543 -0.521548212
v 11.3658123 0.886473954 3.40397143
v -25.6179085 -2.47163367 -3.14783311
v -22.1676426 0.152195543 -0.836010695
v -24.9528275 0.188686803 5.39128113
v -22.3333225 0.532670617 4.67333364
v -7.09353065 -0.0607978888 0.739900053
v -6.73201656 0.133329853 3.24157715
v -12.5192938 0.179209784 0.189483091
v -10.7860107 0.59482336 -0.917840838
v -9.94682312 -0.0947521254 5.43653345
v -12.3663168 -1.40476859 3.3154223
v 4.56921005 0.214862183 -5.78618193
v 0.744293153 -0.998763263 -10.7221708
v 5.82381868 1.71802902 -12.1326799
v 8.27328587 -0.260981143 -7.61731529
v 15.1297941 2.31508851 -1.87221158
v 14.8906765 -2.66273379 -8.13151741
v 19.6692467 -1.79856491 -9.36460018
v 24.8662968 1.90172446 -5.73551607
v 20.6442432 -0.252557188 -1.53894377
v 19.3972263 0.858506203 -0.647806287
v -24.997673 0.00930788927 -14.9953461
v -24.3536777 2.58529139 -6.49993134
v -23.8254795 0.179191068 -14.9104042
v -18.8553715 -1.36634994 -11.0443192
v -18.5323906 -1.35714042 -9.84886169
v -17.5166397 0.100097239 -0.649907231
v -12.5378208 0.183384463 0.196037948
v -12.3878813 -1.41001129 3.31238461
v -17.5016632 -0.564623654 3.67391729
v -15.0843391 0.0760144666 5.40318632
v 5.86384392 -1.3127265 -15.6563635
v 5.81726837 1.70905375 -12.1580896
v -2.06994462 -0.673975885 -15.3369875
v 0.728782952 -0.990561664 -10.7306519
v -1.70888531 -0.438419074 -11.6583672
v -0.0653146654 -0.295383036 -10.4272385
v -7.77747488 -0.808768809 -15.4043846
v -7.70218039 0.132757083 -11.6684361
v -12.4716969 0.556709528 -14.7216454
v -11.987525 0.455996722 -9.80475521
v -17.1126003 0.321977794 -14.8390112
v -12.4903851 0.562373698 -14.7188129
v -16.9159355 -0.283272505 -8.15814877
v -18.8421535 -1.39040041 -11.0618448
v -18.5133553 -1.36615026 -9.85123062
v -12.0041704 0.465094298 -9.78867149
v -12.933814 1.01676846 -7.90723562
v 25.0011806 0.00472398009 -14.9976377
v 22.2982998 -0.290101737 -15.145051
v 24.9448204 -0.220720947 -10.4116468
v 1.51721919 0.230966911 9.53337383
v -4.49470711 -0.886500776 8.69585419
v -4.22092819 0.258204222 4.48096323
v 2.85604215 0.524864137 6.10128307
v -1.64776206 1.06184745 3.79032946
v 2.81066561 0.700484872 5.98807001
v -24.9951305 0.0194804128 15.0097399
v -15.0055313 -0.00131861493 14.999341
v -25.0075169 -0.0300647281 13.9927807
v -16.6564255 0.980896533 12.4967251
v -9.93791866 -0.0880092606 5.52246332
v -6.50807571 0.230720162 9.51542377
v -12.2387323 -0.0615976825 9.39133739
v -10.7984266 -2.08496261 11.0460663
v 19.3870926 0.88054049 -0.621677816
v 14.8008099 -0.281021237 5.69376612
v 15.1200142 2.31437731 -1.85490918
v 11.3851509 0.91326642 3.43565416
v 11.9260368 2.10212278 5.10826302
v 19.6800957 -1.78355205 -9.37580585
v 22.2774582 -0.281790167 -15.1408949
v 24.952692 -0.189229369 -10.3549442
v 25.5452232 2.18089581 -5.79441881
v 24.8859692 1.9171536 -5.74288177
v 18.2052097 2.42072058 -11.4290714
v 17.9268589 -0.416111767 -15.2080555
v -17.1304359 0.333734065 -14.8331327
v -23.7972755 0.169804886 -14.9150972
v -18.8537731 -1.37393463 -11.0715427
v 1.42685854 1.10883486 15.5544176
v -4.52197933 0.153467312 15.0767336
v -4.90414667 -0.289964288 9.40662193
v -4.49687243 -0.867167234 8.72520542
v 1.51900709 0.238719761 9.55726719
v 2.41707659 0.588533044 11.9343224
v -17.5242138 -0.574869752 3.66946721
v -22.1437187 0.168021351 -0.826937556
v -18.3851681 0.850787461 -1.29794133
v -17.5340824 0.111551642 -0.651654124
v -22.3118877 0.538810313 4.67895365
v -20.4276829 -0.333993047 5.90363169
v 25.5439682 2.17587328 -5.77599621
v 24.9678936 -0.128423452 3.17116404
v 22.5135231 -1.75470591 2.23030972
v 20.65769 -0.268965542 -1.53734541
v 24.8908424 1.91372788 -5.72543192
v -1.63101006 1.08729196 3.78591633
v -1.66740155 0.694691479 0.198706403
v 0.266989589 -0.542597711 -1.83782709
v 4.14526272 2.78323507 2.9036665
v 2.81623626 0.720712066 5.97588348
v -7.68427372 0.124508388 -11.6714592
v -7.75685215 -0.806372821 -15.4031868
v -2.08777046 -0.664998829 -15.3324995
v -1.72640455 -0.427681804 -11.6545544
v -5.00677013 0.0198438242 -10.2925692
v -25.0088558 -0.0354199223 13.9695015
v -16.6592941 0.983991027 12.4785748
v -25.0780201 -0.312077284 12.5436487
v -20.593277 -1.32682526 6.53479052
v -16.3613758 0.192478642 10.1091433
v 19.3998375 0.847734988 -0.633880258
v 19.7735901 1.78101802 9.82823086
v 15.8508911 -1.2122941 6.92932701
v 14.8089104 -0.31155616 5.69106579
v 20.6410446 -0.267205 -1.52589107
v 22.4930115 -1.76544678 2.23401117
v -24.3516006 2.59359574 -6.47537518
v -18.3891277 0.854643166 -1.31540501
v -18.5215778 -1.35224283 -9.82794952
v -16.9307995 -0.284386724 -8.14488316
v -22.1535168 0.164779574 -0.847030878
v -25.6221085 -2.48843551 -3.17747593
v 2.87130547 0.51468724 6.10582876
v 8.33313847 -1.49774432 5.1467638
v 8.41156006 0.311288893 12.4106522
v 1.53738594 0.241321996 9.54883385
v 2.43381262 0.584172308 11.9226742
v -6.49082327 0.221276715 9.5027504
v -4.50975227 -0.866726696 8.71012306
v -4.9181571 -0.293713152 9.38950443
v -9.93396187 -0.0859731808 5.45789957
v -9.92828846 -0.0818707794 5.50440073
v -6.72065687 0.131658882 3.25690603
v -4.24073982 0.25895825 4.48127747
v -1.42257869 -0.292403191 -5.65924263
v -4.9984889 0.0230520908 -10.272378
v -1.7161299 -0.42235741 -11.6337976
v -0.0746903941 -0.273035526 -10.4021969
v -5.18992233 0.295236826 -4.56232357
v -6.43672514 -0.879547536 -5.90703869
vn 0.188586265 0.966292858 -0.175252542
vn 0.188586265 0.966292858 -0.175252542
vn 0.188586265 0.966292858 -0.175252542
vn 0.188586265 0.966292858 -0.175252542
vn 0.188586265 0.966292858 -0.175252542
vn 0.196333662 0.929014683 -0.313663661
vn 0.196333662 0.929014683 -0.313663661
vn 0.196333662 0.929014683 -0.313663661
vn 0.196333662 0.929014683 -0.313663661
vn 0.196333662 0.929014683 -0.313663661
vn -0.215499192 0.976503491 -0.00108114164
vn -0.215499192 0.976503491 -0.00108114164
vn -0.215499192 0.976503491 -0.00108114164
vn -0.215499192 0.976503491 -0.00108114164
vn -0.215499192 0.976503491 -0.00108114164
vn -0.0816501677 0.90863055 -0.409540981
vn -0.0816501677 0.90863055 -0.409540981
vn -0.0816501677 0.90863055 -0.409540981
vn -0.0816501677 0.90863055 -0.409540981
vn -0.148742646 0.973169625 -0.175546646
vn -0.148742646 0.973169625 -0.175546646
vn -0.148742646 0.973169625 -0.175546646
vn -0.148742646 0.973169625 -0.175546646
vn -0.148742646 0.973169625 -0.175546646
vn 0.0622458234 0.463474989 0.883921146
vn 0.0622458234 0.463474989 0.883921146
vn 0.0622458234 0.463474989 0.883921146
vn 0.0622458234 0.463474989 0.883921146
vn 0.0622458234 0.463474989 0.883921146
vn 0.0697734132 0.996775448 0.0396294445
vn 0.0697734132 0.996775448 0.0396294445
vn 0.0697734132 0.996775448 0.0396294445
vn 0.0697734132 0.996775448 0.0396294445
vn 0.0697734132 0.996775448 0.0396294445
vn 0.0697734132 0.996775448 0.0396294445
vn 0.0697734132 0.996775448 0.0396294445
vn -0.0981354639 0.994662523 0.0318759754
vn -0.0981354639 0.994662523 0.0318759754
vn -0.0981354639 0.994662523 0.0318759754
vn -0.0981354639 0.994662523 0.0318759754
vn -0.0981354639 0.994662523 0.0318759754
vn -0.0981354639 0.994662523 0.0318759754
vn 0.154624671 0.968861878 0.193385378
vn 0.154624671 0.968861878 0.193385378
vn 0.154624671 0.968861878 0.193385378
vn 0.154624671 0.968861878 0.193385378
vn 0.154624671 0.968861878 0.193385378
vn 0.154624671 0.968861878 0.193385378
vn 0.154624671 0.968861878 0.193385378
vn 0.154624671 0.968861878 0.193385378
vn 0.245498255 0.958875477 -0.142437831
vn 0.245498255 0.958875477 -0.142437831
vn 0.245498255 0.958875477 -0.142437831
vn 0.245498255 0.958875477 -0.142437831
vn 0.245498255 0.958875477 -0.142437831
vn 0.245498255 0.958875477 -0.142437831
vn 0.245498255 0.958875477 -0.142437831
vn -0.151434794 0.981965244 0.11319001
vn -0.151434794 0.981965244 0.11319001
vn -0.151434794 0.981965244 0.11319001
vn -0.151434794 0.981965244 0.11319001
vn -0.151434794 0.981965244 0.11319001
vn -0.151434794 0.981965244 0.11319001
vn 0.175771236 0.973374307 -0.147129625
vn 0.175771236 0.973374307 -0.147129625
vn 0.175771236 0.973374307 -0.147129625
vn 0.175771236 0.973374307 -0.147129625
vn 0.175771236 0.973374307 -0.147129625
vn 0.175771236 0.973374307 -0.147129625
vn 0.25036189 0.937334776 0.242327273
vn 0.25036189 0.937334776 0.242327273
vn 0.25036189 0.937334776 0.242327273
vn 0.25036189 0.937334776 0.242327273
vn 0.25036189 0.937334776 0.242327273
vn 0.108469397 0.981876791 -0.155410439
vn 0.108469397 0.981876791 -0.155410439
vn 0.108469397 0.981876791 -0.155410439
vn 0.108469397 0.981876791 -0.155410439
vn 0.108469397 0.981876791 -0.155410439
vn -0.0570778213 0.993085265 -0.102585711
vn -0.0570778213 0.993085265 -0.102585711
vn -0.0570778213 0.993085265 -0.102585711
vn -0.0570778213 0.993085265 -0.102585711
vn -0.0570778213 0.993085265 -0.102585711
vn -0.0570778213 0.993085265 -0.102585711
vn 0.02910937 0.997451246 -0.0651438758
vn 0.02910937 0.997451246 -0.0651438758
vn 0.02910937 0.997451246 -0.0651438758
vn 0.02910937 0.997451246 -0.0651438758
vn 0.02910937 0.997451246 -0.0651438758
vn 0.02910937 0.997451246 -0.0651438758
vn 0.02910937 0.997451246 -0.0651438758
vn 0.120886587 0.991793871 0.0416111648
vn 0.120886587 0.991793871 0.0416111648
vn 0.120886587 0.991793871 0.0416111648
vn 0.120886587 0.991793871 0.0416111648
vn 0.120886587 0.991793871 0.0416111648
vn -0.0581876226 0.981119812 -0.184440196
vn -0.0581876226 0.981119812 -0.184440196
vn -0.0581876226 0.981119812 -0.184440196
vn -0.0581876226 0.981119812 -0.184440196
vn -0.0581876226 0.981119812 -0.184440196
vn -0.0581876226 0.981119812 -0.184440196
vn 0.0338571072 0.98634696 0.161163226
vn 0.0338571072 0.98634696 0.161163226
vn 0.0338571072 0.98634696 0.161163226
vn 0.0338571072 0.98634696 0.161163226
vn 0.0338571072 0.98634696 0.161163226
vn 0.0338571072 0.98634696 0.161163226
vn 0.173640966 0.983378291 0.0530666001
vn 0.173640966 0.983378291 0.0530666001
vn 0.173640966 0.983378291 0.0530666001
vn 0.173640966 0.983378291 0.0530666001
vn 0.173640966 0.983378291 0.0530666001
vn 0.173640966 0.983378291 0.0530666001
vn -0.0403832942 0.998629987 0.0332802609
vn -0.0403832942 0.998629987 0.0332802609
vn -0.0403832942 0.998629987 0.0332802609
vn -0.0403832942 0.998629987 0.0332802609
vn -0.0403832942 0.998629987 0.0332802609
vn -0.0403832942 0.998629987 0.0332802609
vn -0.0403832942 0.998629987 0.0332802609
vn -0.0264741071 0.992802441 -0.116800718
vn -0.0264741071 0.992802441 -0.116800718
vn -0.0264741071 0.992802441 -0.116800718
vn -0.0264741071 0.992802441 -0.116800718
vn -0.0264741071 0.992802441 -0.116800718
vn -0.0264741071 0.992802441 -0.116800718
vn -0.323664278 0.944095135 -0.0626570731
vn -0.323664278 0.944095135 -0.0626570731
vn -0.323664278 0.944095135 -0.0626570731
vn -0.323664278 0.944095135 -0.0626570731
vn -0.393191725 0.901437163 -0.181139126
vn -0.393191725 0.901437163 -0.181139126
vn -0.393191725 0.901437163 -0.181139126
vn -0.393191725 0.901437163 -0.181139126
vn -0.142957091 0.980119705 0.137581795
vn -0.142957091 0.980119705 0.137581795
vn -0.142957091 0.980119705 0.137581795
vn -0.142957091 0.980119705 0.137581795
vn -0.142957091 0.980119705 0.137581795
vn -0.142957091 0.980119705 0.137581795
vn -0.174640894 0.965309322 0.194109425
vn -0.174640894 0.965309322 0.194109425
vn -0.174640894 0.965309322 0.194109425
vn -0.174640894 0.965309322 0.194109425
vn -0.0941949338 0.935712993 -0.339953929
vn -0.0941949338 0.935712993 -0.339953929
vn -0.0941949338 0.935712993 -0.339953929
vn -0.0941949338 0.935712993 -0.339953929
vn -0.0941949338 0.935712993 -0.339953929
vn -0.0941949338 0.935712993 -0.339953929
vn 0.375023365 0.899567902 -0.22390911
vn 0.375023365 0.899567902 -0.22390911
vn 0.375023365 0.899567902 -0.22390911
vn 0.375023365 0.899567902 -0.22390911
vn 0.375023365 0.899567902 -0.22390911
vn 0.0737100467 0.98929286 0.125962481
vn 0.0737100467 0.98929286 0.125962481
vn 0.0737100467 0.98929286 0.125962481
vn 0.0737100467 0.98929286 0.125962481
vn 0.0737100467 0.98929286 0.125962481
vn -0.112785712 0.962239563 -0.247739017
vn -0.112785712 0.962239563 -0.247739017
vn -0.112785712 0.962239563 -0.247739017
vn -0.112785712 0.962239563 -0.247739017
vn -0.112785712 0.962239563 -0.247739017
vn -0.112785712 0.962239563 -0.247739017
vn 0.154826 0.982296646 -0.105462246
vn 0.154826 0.982296646 -0.105462246
vn 0.154826 0.982296646 -0.105462246
vn 0.154826 0.982296646 -0.105462246
vn -0.226113588 0.973780632 0.0249796752
vn -0.226113588 0.973780632 0.0249796752
vn -0.226113588 0.973780632 0.0249796752
vn -0.226113588 0.973780632 0.0249796752
vn -0.226113588 0.973780632 0.0249796752
vn -0.226113588 0.973780632 0.0249796752
vn -0.226113588 0.973780632 0.0249796752
vn -0.110869616 0.992702186 0.047438208
vn -0.110869616 0.992702186 0.047438208
vn -0.110869616 0.992702186 0.047438208
vn -0.13958177 0.965274274 0.220822468
vn -0.13958177 0.965274274 0.220822468
vn -0.13958177 0.965274274 0.220822468
vn -0.13958177 0.965274274 0.220822468
vn -0.13958177 0.965274274 0.220822468
vn -0.13958177 0.965274274 0.220822468
vn -0.0298578478 0.962621391 0.269200176
vn -0.0298578478 0.962621391 0.269200176
vn -0.0298578478 0.962621391 0.269200176
vn -0.0298578478 0.962621391 0.269200176
vn -0.0552218519 0.941712618 0.331855416
vn -0.0552218519 0.941712618 0.331855416
vn -0.0552218519 0.941712618 0.331855416
vn -0.0552218519 0.941712618 0.331855416
vn 0.22938101 0.943672419 0.238467395
vn 0.22938101 0.943672419 0.238467395
vn 0.22938101 0.943672419 0.238467395
vn 0.22938101 0.943672419 0.238467395
vn 0.22938101 0.943672419 0.238467395
vn 0.0276883338 0.995247304 -0.0933603719
vn 0.0276883338 0.995247304 -0.0933603719
vn 0.0276883338 0.995247304 -0.0933603719
vn 0.0276883338 0.995247304 -0.0933603719
vn 0.0276883338 0.995247304 -0.0933603719
vn 0.0276883338 0.995247304 -0.0933603719
vn 0.0276883338 0.995247304 -0.0933603719
vn -0.0274477899 0.914892554 0.402763486
vn -0.0274477899 0.914892554 0.402763486
vn -0.0274477899 0.914892554 0.402763486
vn -0.102327228 0.983161688 -0.15140079
vn -0.102327228 0.983161688 -0.15140079
vn -0.102327228 0.983161688 -0.15140079
vn -0.102327228 0.983161688 -0.15140079
vn -0.102327228 0.983161688 -0.15140079
vn -0.102327228 0.983161688 -0.15140079
vn 0.139227927 0.982767105 0.121591404
vn 0.139227927 0.982767105 0.121591404
vn 0.139227927 0.982767105 0.121591404
vn 0.139227927 0.982767105 0.121591404
vn 0.139227927 0.982767105 0.121591404
vn 0.139227927 0.982767105 0.121591404
vn -0.356786668 0.887628555 0.291236758
vn -0.356786668 0.887628555 0.291236758
vn -0.356786668 0.887628555 0.291236758
vn -0.356786668 0.887628555 0.291236758
vn -0.356786668 0.887628555 0.291236758
vn -0.193031937 0.978834152 -0.067988798
vn -0.193031937 0.978834152 -0.067988798
vn -0.193031937 0.978834152 -0.067988798
vn -0.193031937 0.978834152 -0.067988798
vn -0.193031937 0.978834152 -0.067988798
vn 0.0449827053 0.98778975 -0.149157688
vn 0.0449827053 0.98778975 -0.149157688
vn 0.0449827053 0.98778975 -0.149157688
vn 0.0449827053 0.98778975 -0.149157688
vn 0.0449827053 0.98778975 -0.149157688
vn -0.136426702 0.954477429 -0.265255719
vn -0.136426702 0.954477429 -0.265255719
vn -0.136426702 0.954477429 -0.265255719
vn -0.136426702 0.954477429 -0.265255719
vn -0.136426702 0.954477429 -0.265255719
vn 0.123644955 0.992227852 -0.0140015166
vn 0.123644955 0.992227852 -0.0140015166
vn 0.123644955 0.992227852 -0.0140015166
vn 0.123644955 0.992227852 -0.0140015166
vn 0.123644955 0.992227852 -0.0140015166
vn 0.123644955 0.992227852 -0.0140015166
vn -0.0251473226 0.996374309 0.0812768936
vn -0.0251473226 0.996374309 0.0812768936
vn -0.0251473226 0.996374309 0.0812768936
vn -0.0251473226 0.996374309 0.0812768936
vn -0.0251473226 0.996374309 0.0812768936
vn -0.0251473226 0.996374309 0.0812768936
vn 0.1533591 0.979896486 -0.127608657
vn 0.1533591 0.979896486 -0.127608657
vn 0.1533591 0.979896486 -0.127608657
vn 0.1533591 0.979896486 -0.127608657
vn 0.1533591 0.979896486 -0.127608657
vn 0.07817211 0.996467888 0.0306755807
vn 0.07817211 0.996467888 0.0306755807
vn 0.07817211 0.996467888 0.0306755807
vn 0.07817211 0.996467888 0.0306755807
vn 0.07817211 0.996467888 0.0306755807
vn 0.07817211 0.996467888 0.0306755807
vn 0.07817211 0.996467888 0.0306755807
vn -0.0263429899 0.998935401 -0.0378712676
vn -0.0263429899 0.998935401 -0.0378712676
vn -0.0263429899 0.998935401 -0.0378712676
vn -0.0263429899 0.998935401 -0.0378712676
vn -0.0263429899 0.998935401 -0.0378712676
vn -0.0263429899 0.998935401 -0.0378712676
g outside
f 3//3 2//2 5//5 4//4 1//1
f 9//9 8//8 7//7 6//6 10//10
f 12//12 11//11 15//15 14//14 13//13
f 16//16 18//18 19//19 17//17
f 24//24 23//23 21//21 22//22 20//20
f 27//27 26//26 25//25 29//29 28//28
f 34//34 33//33 31//31 30//30 32//32 36//36 35//35
f 42//42 41//41 38//38 37//37 40//40 39//39
f 43//43 44//44 45//45 50//50 49//49 48//48 47//47 46//46
f 52//52 54//54 55//55 53//53 51//51 57//57 56//56
f 61//61 60//60 59//59 63//63 62//62 58//58
f 65//65 64//64 67//67 69//69 68//68 66//66
f 70//70 71//71 74//74 73//73 72//72
f 79//79 78//78 76//76 77//77 75//75
f 81//81 80//80 83//83 82//82 85//85 84//84
f 90//90 89//89 87//87 88//88 92//92 91//91 86//86
f 94//94 93//93 95//95 97//97 96//96
f 99//99 98//98 103//103 102//102 101//101 100//100
f 107//107 105//105 106//106 104//104 109//109 108//108
f 115//115 114//114 112//112 113//113 111//111 110//110
f 116//116 121//121 122//122 118//118 117//117 120//120 119//119
f 125//125 124//124 123//123 128//128 127//127 126//126
f 129//129 131//131 132//132 130//130
f 133//133 135//135 136//136 134//134
f 140//140 139//139 142//142 141//141 138//138 137//137
f 145//145 144//144 143//143 146//146
f 148//148 147//147 152//152 151//151 150//150 149//149
f 153//153 154//154 157//157 156//156 155//155
f 158//158 161//161 162//162 160//160 159//159
f 165//165 167//167 168//168 166//166 164//164 163//163
f 171//171 172//172 170//170 169//169
f 173//173 176//176 177//177 175//175 179//179 178//178 174//174
f 181//181 182//182 180//180
f 185//185 184//184 183//183 186//186 188//188 187//187
f 192//192 191//191 189//189 190//190
f 193//193 195//195 196//196 194//194
f 199//199 200//200 201//201 198//198 197//197
f 208//208 207//207 202//202 206//206 205//205 204//204 203//203
f 210//210 211//211 209//209
f 215//215 214//214 213//213 212//212 217//217 216//216
f 219//219 222//222 223//223 218//218 221//221 220//220
f 228//228 227//227 226//226 225//225 224//224
f 231//231 230//230 229//229 233//233 232//232
f 235//235 234//234 238//238 237//237 236//236
f 241//241 239//239 240//240 243//243 242//242
f 248//248 244//244 247//247 246//246 245//245 249//249
f 253//253 252//252 250//250 255//255 254//254 251//251
f 256//256 259//259 260//260 258//258 257//257
f 267//267 266//266 264//264 265//265 261//261 263//263 262//262
f 271//271 270//270 269//269 273//273 272//272 268//268
